<?xml version="1.0" encoding="utf-8"?>
<!-- Generator: Adobe Illustrator 17.0.0, SVG Export Plug-In . SVG Version: 6.00 Build 0)  -->
<!DOCTYPE svg PUBLIC "-//W3C//DTD SVG 1.1//EN" "http://www.w3.org/Graphics/SVG/1.1/DTD/svg11.dtd">
<svg version="1.1"
	 id="svg2" sodipodi:docname="alcatel lucent  logo.svg" inkscape:version="0.47 r22583" xmlns:inkscape="http://www.inkscape.org/namespaces/inkscape" xmlns:svg="http://www.w3.org/2000/svg" xmlns:rdf="http://www.w3.org/1999/02/22-rdf-syntax-ns#" xmlns:sodipodi="http://sodipodi.sourceforge.net/DTD/sodipodi-0.dtd" xmlns:dc="http://purl.org/dc/elements/1.1/" xmlns:cc="http://creativecommons.org/ns#"
	 xmlns="http://www.w3.org/2000/svg" xmlns:xlink="http://www.w3.org/1999/xlink" x="0px" y="0px" width="300.686px"
	 height="148.202px" viewBox="0 -84.798 300.686 148.202" enable-background="new 0 -84.798 300.686 148.202" xml:space="preserve">
<defs>
	
	
		<inkscape:perspective  inkscape:persp3d-origin="0.5 : 0.33333333 : 1" id="perspective10" inkscape:vp_x="0 : 0.5 : 1" inkscape:vp_y="0 : 1000 : 0" inkscape:vp_z="1 : 0.5 : 1" sodipodi:type="inkscape:persp3d">
		</inkscape:perspective>
</defs>
<sodipodi:namedview  inkscape:current-layer="g12" inkscape:window-maximized="1" inkscape:window-y="-8" inkscape:window-x="-8" inkscape:window-height="750" inkscape:window-width="1280" inkscape:pageshadow="2" inkscape:pageopacity="0" id="namedview4" objecttolerance="10" guidetolerance="10" gridtolerance="10" inkscape:cy="49.192343" inkscape:cx="182.91418" inkscape:zoom="1.3485026" showgrid="false" bordercolor="#666666" borderopacity="1" pagecolor="#ffffff">
	</sodipodi:namedview>
<g id="g14">
	<g>
		<defs>
			<path id="SVGID_1_" d="M263.682,0.44c-2.404,0.406-4.757,1.083-7.042,2.048l0,0c-3.656,1.557-7.076,3.809-10.072,6.805l0,0
				c-3.589,3.589-6.145,7.838-7.651,12.34l0,0c-0.491,1.49-0.88,2.996-1.151,4.52l0,0c-0.322,1.845-0.474,3.724-0.474,5.586l0,0
				c0,8.379,3.386,16.488,9.31,22.412l0,0c6.03,5.996,13.856,9.092,21.745,9.252l0,0h1.292c1.648-0.034,3.295-0.199,4.928-0.483l0,0
				c1.523-0.271,3.03-0.66,4.503-1.151l0,0c4.52-1.523,8.752-4.063,12.34-7.651l0,0c2.979-2.979,5.231-6.399,6.788-10.055l0,0
				c0.948-2.268,1.642-4.621,2.048-7.025l0,0c0.305-1.76,0.44-3.538,0.44-5.332l0,0c0-8.091-3.081-16.2-9.259-22.395l0,0
				c-5.908-5.908-14.033-9.293-22.395-9.31l0,0C267.237,0,265.459,0.152,263.682,0.44"/>
		</defs>
		<clipPath id="SVGID_2_">
			<use xlink:href="#SVGID_1_"  overflow="visible"/>
		</clipPath>
		<g id="g16" clip-path="url(#SVGID_2_)">
			<g id="g22">
				<g id="g24" transform="matrix(34.584,0,0,34.464004,517.87732,701.79797)">
					
						<image overflow="visible" enable-background="new    " width="144" height="143" id="image26" xlink:href="75CCDF998CCAFE68.png"  transform="matrix(0.0131 0 0 0.0132 -8.1357 -20.3775)">
					</image>
				</g>
			</g>
		</g>
	</g>
</g>
<g id="g28">
	<g>
		<defs>
			<rect id="SVGID_3_" x="-0.001" y="0" width="300.694" height="63.404"/>
		</defs>
		<clipPath id="SVGID_4_">
			<use xlink:href="#SVGID_3_"  overflow="visible"/>
		</clipPath>
		<g id="g30" clip-path="url(#SVGID_4_)">
			<g id="g36" transform="translate(542.6373,714.4023)">
				<path id="path38" fill="#FFFFFF" d="M-259.554-673.78c-3.043,3.529-6.508,5.72-9.094,6.788
					c-2.682,1.106-3.875,1.128-3.993-1.866c-0.229-5.774,2.34-16.467,4.964-26.072c2.27-8.319,2.597-9.765-1.371-11.042
					c-2.979-0.961-5.103-0.303-9.496,3.747c-5.669,5.223-14.304,17.093-18.649,26.106c1.104,0.989,2.347,1.966,3.265,2.626
					c0.986,0.713,1.77,0.498,2.492-0.63c3.214-5.018,8.579-10.364,14.763-14.118c0.29-1.019,0.592-2.031,0.893-3.017
					c-5.123,2.407-9.31,5.522-9.31,5.522c5.302-9.716,12.976-17.588,14.379-16.978c0.897,0.391-2.169,8.225-4.377,16.224
					c-2.524,9.148-3.803,16.126-3.408,21.233c0.359,4.646,4.001,5.891,9.444,3.502c4.087-1.796,7.962-5.293,10.787-9.562
					l-1.232-2.528L-259.554-673.78z M-261.117-694.146c-1.478-0.275-3.017-0.333-4.649-0.173c-0.115,0.412-0.245,0.893-0.391,1.435
					c4.098-0.944,7.806-0.389,10.241,3.122c2.404,3.468,0.933,8.872-1.493,12.972l1.061,2.122l0.039-0.079
					C-249.698-688.419-257.062-693.394-261.117-694.146"/>
			</g>
			<g id="g40" transform="translate(453.4145,719.1465)">
				<path id="path42" fill="#6B489D" d="M-338.146-687.447c0,1.753-1.42,3.173-3.173,3.173c-1.751,0-3.173-1.42-3.173-3.173
					c0-1.753,1.422-3.173,3.173-3.173C-339.566-690.62-338.146-689.2-338.146-687.447"/>
			</g>
			<g id="g44" transform="translate(397.5653,724.96)">
				<path id="path46" d="M-387.341-704.195l-3.765,13.49h7.505L-387.341-704.195z M-381.081-682.315l-1.539-4.997h-9.478
					l-1.54,4.997h-3.927l7.864-25.38h4.811l7.745,25.38C-377.145-682.315-381.081-682.315-381.081-682.315z M-294.993-682.315
					h-3.664v-25.378h3.664V-682.315z M-306.062-693.262c0-0.483,0.122-2.092-0.645-3.54c-0.399-0.728-1.488-2.455-3.901-2.415
					c-1.048,0-2.013,0.322-2.776,0.965c-1.934,1.651-2.052,4.349-2.093,4.99C-315.477-693.262-306.062-693.262-306.062-693.262z
					 M-315.436-690.807c0.079,0.844,0.239,1.409,0.363,1.73c0.562,1.73,1.89,3.143,3.579,3.786c0.683,0.241,1.653,0.519,3.299,0.519
					c0.967,0,2.456-0.079,4.591-0.841l-0.043,2.936c-0.884,0.322-2.612,0.803-5.11,0.803c-0.724,0-3.179,0-5.353-1.085
					c-2.052-1.008-5.11-3.624-5.069-9.216c0-0.724,0.039-2.535,0.766-4.382c0.641-1.574,2.695-5.517,7.845-5.517
					c4.913,0,8.05,3.658,8.05,8.451c0,0.803-0.041,1.328-0.403,2.816H-315.436L-315.436-690.807z M-320.825-698.573h-5.43v9.982
					c0,0.16-0.041,1.083,0.117,1.727c0.566,1.933,2.658,1.854,3.143,1.854c0.681,0,1.285-0.039,2.573-0.363l-0.04,3.019
					c-1.168,0.239-2.095,0.361-3.299,0.361c-0.485,0-2.214,0-3.624-0.767c-2.453-1.324-2.535-3.903-2.535-6.275v-16.251l3.666-2.834
					v6.53h5.43C-320.825-701.59-320.825-698.573-320.825-698.573z M-338.087-692.054c-2.172,0-5.193,0.079-7.004,1.569
					c-0.846,0.685-1.288,1.572-1.288,2.695c0,0.687,0.164,1.292,0.566,1.772c0.762,0.969,2.133,1.369,4.544,1.369
					c0.564,0,1.774-0.038,3.182-0.282C-338.087-684.932-338.087-692.054-338.087-692.054z M-348.432-700.385
					c0.403-0.201,0.846-0.403,1.288-0.604c0.927-0.361,2.977-1.085,5.633-1.085c2.737,0,4.309,0.724,5.233,1.527
					c0.201,0.162,0.846,0.724,1.168,1.45c0.361,0.766,0.604,1.651,0.604,3.579l-0.041,12.922c-2.938,0.641-5.913,0.722-6.878,0.722
					c-1.612,0-2.859-0.16-3.465-0.282c-1.125-0.199-5.108-1.083-5.108-5.392c0-0.923,0.158-2.816,2.009-4.386
					c2.739-2.374,6.606-2.534,9.903-2.534v-0.886c0-1.127-0.039-1.529-0.243-2.013c-0.401-0.923-1.488-1.809-3.743-1.809
					c-1.729,0-3.741,0.523-5.268,1.245c-0.406,0.162-0.769,0.401-1.129,0.604C-348.469-697.326-348.432-700.385-348.432-700.385z
					 M-352.694-697.729h-0.045c-0.399-0.28-0.438-0.318-0.685-0.444c-1.283-0.722-2.693-0.762-3.179-0.762
					c-0.48,0-1.567,0.039-2.735,0.604c-1.409,0.643-3.662,2.374-3.662,6.237c0,0.564,0,1.608,0.481,2.855
					c0.969,2.618,3.261,4.228,6.039,4.228c1.969,0,3.301-0.807,3.901-1.168l0.041,3.1c-0.323,0.201-0.722,0.444-1.085,0.56
					c-0.523,0.243-1.853,0.645-3.542,0.645c-5.836-0.039-9.66-4.546-9.66-10.221c0-0.686,0.043-2.336,0.726-4.066
					c0.726-1.928,3.058-5.913,8.772-5.913c1.006,0,2.535,0.077,4.631,1.085C-352.694-700.989-352.694-697.729-352.694-697.729z
					 M-370.771-682.315h-3.66v-25.378h3.66V-682.315z M-172.997-698.573h-5.434v9.982c0,0.16-0.04,1.083,0.122,1.727
					c0.562,1.933,2.656,1.854,3.137,1.854c0.685,0,1.288-0.039,2.575-0.363l-0.04,3.019c-1.166,0.239-2.092,0.361-3.299,0.361
					c-0.485,0-2.216,0-3.624-0.767c-2.455-1.324-2.535-3.903-2.535-6.275v-16.251l3.664-2.834v6.53h5.434
					C-172.997-701.59-172.997-698.573-172.997-698.573z M-199.763-701.632v3.781c0.203-0.438,0.523-1.083,0.805-1.488
					c1.772-2.494,4.106-2.735,5.231-2.735c0.685,0,2.537,0.077,4.106,1.245c2.417,1.811,2.494,4.55,2.494,7.247v11.266h-3.66
					v-10.826c0-1.691-0.041-3.38-1.371-4.627c-0.359-0.363-1.245-0.969-2.654-0.969c-0.525,0-1.691,0.126-2.818,1.008
					c-2.011,1.648-1.971,4.428-1.971,6.718v8.695h-3.664v-19.316C-203.266-701.632-199.763-701.632-199.763-701.632z
					 M-210.874-693.262c0-0.483,0.12-2.092-0.645-3.54c-0.399-0.728-1.49-2.455-3.903-2.415c-1.044,0-2.013,0.322-2.774,0.965
					c-1.934,1.651-2.054,4.349-2.093,4.99C-220.289-693.262-210.874-693.262-210.874-693.262z M-220.25-690.807
					c0.081,0.845,0.243,1.409,0.365,1.73c0.56,1.73,1.892,3.143,3.581,3.786c0.683,0.241,1.648,0.519,3.295,0.519
					c0.969,0,2.458-0.079,4.591-0.841l-0.041,2.936c-0.882,0.322-2.614,0.803-5.11,0.803c-0.726,0-3.181,0-5.355-1.085
					c-2.05-1.008-5.108-3.624-5.069-9.216c0-0.724,0.041-2.535,0.767-4.382c0.641-1.574,2.693-5.517,7.845-5.517
					c4.911,0,8.05,3.658,8.05,8.451c0,0.803-0.043,1.328-0.402,2.816H-220.25L-220.25-690.807z M-226.607-697.729h-0.041
					c-0.401-0.28-0.442-0.318-0.687-0.444c-1.283-0.722-2.693-0.762-3.177-0.762c-0.481,0-1.569,0.039-2.735,0.604
					c-1.411,0.643-3.664,2.374-3.664,6.237c0,0.564,0,1.608,0.481,2.855c0.971,2.618,3.261,4.228,6.038,4.228
					c1.973,0,3.301-0.807,3.905-1.168l0.04,3.1c-0.322,0.201-0.722,0.444-1.085,0.56c-0.523,0.243-1.851,0.645-3.544,0.645
					c-5.834-0.039-9.656-4.546-9.656-10.221c0-0.686,0.041-2.336,0.724-4.066c0.724-1.928,3.058-5.913,8.772-5.913
					c1.004,0,2.535,0.077,4.629,1.085L-226.607-697.729L-226.607-697.729z M-256.59-701.632v10.95c0,1.768,0.036,3.698,1.687,4.826
					c0.44,0.322,1.409,0.762,2.816,0.762c1.531-0.041,2.253-0.401,2.778-0.803c1.61-1.332,1.49-3.703,1.49-5.513v-10.222h3.662
					v10.222c0,2.374-0.043,3.258-0.359,4.467c-0.286,0.965-0.89,2.733-3.102,3.984c-1.851,1.085-3.784,1.085-4.548,1.085
					c-1.208,0-2.214-0.16-2.616-0.282c-2.131-0.521-4.066-1.967-4.87-4.023c-0.562-1.446-0.604-3.179-0.604-4.789v-10.664
					C-260.255-701.632-256.59-701.632-256.59-701.632z M-272.28-707.694v21.957h10.089v3.421h-13.751v-25.378
					C-275.942-707.694-272.28-707.694-272.28-707.694z"/>
			</g>
		</g>
	</g>
</g>
</svg>
