<?xml version="1.0" encoding="utf-8"?>
<!-- Generator: Adobe Illustrator 17.0.0, SVG Export Plug-In . SVG Version: 6.00 Build 0)  -->
<!DOCTYPE svg PUBLIC "-//W3C//DTD SVG 1.1//EN" "http://www.w3.org/Graphics/SVG/1.1/DTD/svg11.dtd">
<svg version="1.1" id="Layer_1" xmlns="http://www.w3.org/2000/svg" xmlns:xlink="http://www.w3.org/1999/xlink" x="0px" y="0px"
	 width="271px" height="224px" viewBox="0 0 271 224" enable-background="new 0 0 271 224" xml:space="preserve">
<path fill="none" d="M53.391,79v26.25c0,32.388,17.596,60.664,43.75,75.792h87.5c26.154-15.129,43.75-43.404,43.75-75.793V79
	L53.391,79L53.391,79z"/>
<path fill="none" d="M184.641,140.25v40.792c-12.867,7.446-27.812,11.708-43.75,11.708s-30.883-4.261-43.75-11.708V140.25
	c0-24.163,19.587-43.75,43.75-43.75S184.641,116.087,184.641,140.25z"/>
<path fill="#F10100" d="M140.891,114c14.499,0,26.25,11.751,26.25,26.25s-11.751,26.25-26.25,26.25s-26.25-11.751-26.25-26.25
	S126.392,114,140.891,114z"/>
<path fill="#F0E6DE" d="M140.891,131.5c4.826,0,8.75,3.924,8.75,8.75s-3.924,8.75-8.75,8.75s-8.75-3.924-8.75-8.75
	S136.065,131.5,140.891,131.5z"/>
<path fill="none" d="M248.516,35.25V61.5c0,9.664-7.836,17.5-17.5,17.5c-15.997,0-158.112,0-180.25,0c-9.664,0-17.5-7.836-17.5-17.5
	V35.25H248.516z"/>
<path d="M158.5,57.125c-2.415,0-4.375,1.96-4.375,4.375s1.96,4.375,4.375,4.375s4.375-1.96,4.375-4.375S160.915,57.125,158.5,57.125
	z"/>
<path fill="#333333" d="M248.625,30.875H33.375c-2.416,0-4.375,1.959-4.375,4.375V61.5c0,11.473,8.879,20.903,20.125,21.799v21.951
	c0,33.923,18.413,63.66,45.934,79.579c0.034,0.02,0.069,0.039,0.103,0.059c0.001,0.001,0.003,0.002,0.004,0.002
	c13.875,8.004,29.721,12.235,45.834,12.235c16.676,0,32.593-4.543,45.941-12.296l0,0c13.713-7.933,25.215-19.34,33.261-32.989
	c8.291-14.065,12.673-30.176,12.673-46.591V83.299C244.121,82.404,253,72.973,253,61.5V35.25
	C253,32.834,251.041,30.875,248.625,30.875z M101.625,178.472V140.25c0-21.711,17.664-39.375,39.375-39.375
	s39.375,17.664,39.375,39.375v38.222c-12.038,6.484-25.596,9.903-39.375,9.903C127.221,188.375,113.664,184.956,101.625,178.472z
	 M224.125,105.25c0,26.967-13.239,52.274-35,67.774V140.25c0-26.536-21.589-48.125-48.125-48.125s-48.125,21.589-48.125,48.125
	v32.774c-21.761-15.5-35-40.806-35-67.774V83.375h166.25V105.25z M231.125,74.625c-15.997,0-158.112,0-180.25,0
	c-7.237,0-13.125-5.888-13.125-13.125V39.625h206.5v17.5H176c-2.416,0-4.375,1.959-4.375,4.375s1.959,4.331,4.375,4.331h67.497
	C241.691,70.923,236.828,74.625,231.125,74.625z"/>
<path fill="#333333" d="M141,109.625c-16.887,0-30.625,13.738-30.625,30.625s13.738,30.625,30.625,30.625
	s30.625-13.738,30.625-30.625S157.887,109.625,141,109.625z M141,162.125c-12.062,0-21.875-9.813-21.875-21.875
	s9.813-21.875,21.875-21.875s21.875,9.813,21.875,21.875S153.062,162.125,141,162.125z"/>
<path fill="#333333" d="M141,127.125c-7.237,0-13.125,5.888-13.125,13.125s5.888,13.125,13.125,13.125s13.125-5.888,13.125-13.125
	S148.237,127.125,141,127.125z M141,144.625c-2.412,0-4.375-1.963-4.375-4.375s1.963-4.375,4.375-4.375s4.375,1.963,4.375,4.375
	S143.412,144.625,141,144.625z"/>
</svg>
