<?xml version="1.0" encoding="utf-8"?>
<!-- Generator: Adobe Illustrator 17.0.0, SVG Export Plug-In . SVG Version: 6.00 Build 0)  -->
<!DOCTYPE svg PUBLIC "-//W3C//DTD SVG 1.1//EN" "http://www.w3.org/Graphics/SVG/1.1/DTD/svg11.dtd">
<svg version="1.1" id="Layer_1" xmlns="http://www.w3.org/2000/svg" xmlns:xlink="http://www.w3.org/1999/xlink" x="0px" y="0px"
	 width="271px" height="224px" viewBox="0 0 271 224" enable-background="new 0 0 271 224" xml:space="preserve">
<g>
	<g>
		<rect x="117.665" y="34.078" fill="#F10100" width="38.87" height="81.719"/>
		<path fill="#333333" d="M29.178,209.68h215.661l0,0c2.286,0,4.161-1.875,4.161-4.161c0-0.777-0.229-1.555-0.594-2.149
			l-20.898-42.391V46.791c0-2.286-1.875-4.161-4.161-4.161h-45.958c-2.286,0-4.161,1.875-4.161,4.161s1.875,4.161,4.161,4.161
			h41.843v106.87H55.061V50.952h40.791c2.286,0,4.161-1.875,4.161-4.161s-1.875-4.161-4.161-4.161H50.854
			c-2.286,0-4.161,1.875-4.161,4.161v114.187l-21.264,42.711c-0.64,1.28-0.549,2.79,0.183,4.024
			C26.388,208.948,27.76,209.68,29.178,209.68z M108.427,201.403l3.658-7.317h49.937l3.613,7.317H108.427z M53.415,166.099h167.325
			l17.377,35.258h-63.29l-6.539-13.307c-0.686-1.418-2.149-2.332-3.704-2.332h-55.104c-1.555,0-3.018,0.869-3.704,2.286
			l-6.631,13.307h-63.29L53.415,166.099z"/>
		<path fill="#333333" d="M160.65,21.274c0-8.231-6.677-14.954-14.954-14.954h-17.286c-8.231,0-14.954,6.677-14.954,14.954v11.341
			c0,0.274,0.046,0.503,0.091,0.732c-0.046,0.229-0.091,0.503-0.091,0.732v81.719c0,0.046,0,0.091,0,0.091
			c0,0.183,0.046,0.412,0.046,0.594c0,0.046,0,0.091,0.046,0.183c0.046,0.229,0.137,0.457,0.229,0.686
			c0.046,0.046,0.046,0.091,0.091,0.183c0.091,0.183,0.183,0.32,0.274,0.457c0.046,0.046,0.091,0.137,0.137,0.183
			c0.046,0.046,0.046,0.091,0.091,0.137l19.435,25.471c0.777,1.006,2.012,1.646,3.293,1.646s2.515-0.594,3.293-1.646l19.435-25.471
			c0.046-0.046,0.046-0.091,0.091-0.137c0.046-0.046,0.091-0.137,0.137-0.183c0.091-0.137,0.183-0.32,0.274-0.457
			c0.046-0.046,0.046-0.091,0.091-0.183c0.091-0.229,0.137-0.457,0.229-0.686c0-0.046,0-0.091,0.046-0.183
			c0.046-0.183,0.046-0.412,0.046-0.594c0-0.046,0-0.091,0-0.091V33.941c0-0.229-0.046-0.457-0.046-0.686
			c0.046-0.229,0.046-0.457,0.046-0.686V21.274L160.65,21.274L160.65,21.274z M121.826,36.776h11.158v74.859h-11.158V36.776z
			 M141.261,36.776h11.158v74.859h-11.158V36.776z M121.826,21.274c0-3.658,2.972-6.631,6.631-6.631h17.286
			c3.658,0,6.631,2.972,6.631,6.631v7.18h-30.547L121.826,21.274L121.826,21.274z M137.1,134.455l-11.067-14.496h22.087
			L137.1,134.455z"/>
	</g>
</g>
</svg>
