<?xml version="1.0" encoding="utf-8"?>
<!-- Generator: Adobe Illustrator 17.0.0, SVG Export Plug-In . SVG Version: 6.00 Build 0)  -->
<!DOCTYPE svg PUBLIC "-//W3C//DTD SVG 1.1//EN" "http://www.w3.org/Graphics/SVG/1.1/DTD/svg11.dtd">
<svg version="1.1" id="_x32_490755a-457e-4afb-a65a-0ea5e4d54fde"
	 xmlns="http://www.w3.org/2000/svg" xmlns:xlink="http://www.w3.org/1999/xlink" x="0px" y="0px" width="945.48px"
	 height="723.06px" viewBox="0 0 945.48 723.06" enable-background="new 0 0 945.48 723.06" xml:space="preserve">
<title>address</title>
<g>
	<path fill="#F10100" d="M711.962,380.977h-17.061c-15.938,0-28.9,12.962-28.9,28.9v36.612h-93.588v-58.202
		c34.122-11.015,55.75-56.64,55.75-119.615c0-67.711-24.979-115.422-63.64-121.552c-0.487-0.075-0.973-0.112-1.469-0.112H188.702
		c-4.502,0-8.357,3.21-9.19,7.637h-0.009c-0.187,1.001-4.417,24.782,11.633,44.117c10.65,12.831,27.328,20.299,49.527,22.414
		c-3.341,14.881-5.166,30.978-5.166,47.496c0,68.226,28.778,121.665,65.512,121.665h196.535v121.356
		c0,15.648,12.728,28.385,28.385,28.385h18.109c12.241,0,22.602-7.833,26.579-18.718h95.394v27.253c0,15.938,12.962,28.9,28.9,28.9
		h17.061c15.938,0,28.9-12.962,28.9-28.9V409.877C740.862,393.939,727.9,380.977,711.962,380.977z M562.259,165.724
		c22.433,4.08,44.81,34.468,46.963,93.588H417.178l-34.693-34.693c-1.759-1.759-4.137-2.742-6.617-2.742h-18.718h-3.266H316.59
		h-10.014c-0.084-0.131-0.187-0.262-0.271-0.393c-0.955-1.535-2.022-3.079-3.182-4.633c-0.627-0.842-1.329-1.685-2.012-2.527
		c-0.309-0.384-0.599-0.767-0.917-1.151c-0.374-0.44-0.758-0.88-1.151-1.32c-0.412-0.468-0.749-0.927-1.17-1.394
		c-0.159-0.178-0.365-0.299-0.543-0.468c-1.048-1.132-2.143-2.265-3.294-3.407c-0.739-0.73-1.488-1.451-2.255-2.171
		c-1.862-1.741-3.828-3.491-5.924-5.241c-1.685-1.413-3.444-2.789-5.222-4.165c-0.814-0.627-1.619-1.254-2.461-1.881
		c-14.16-10.585-30.557-19.972-45.353-27.403H562.259z M310.357,256.187c0,19.56-5.615,32.484-9.359,38.118
		c-3.743-5.643-9.359-18.559-9.359-38.118c0-7.543,0.814-13.935,1.965-19.214c0.037,0.056,0.112,0.075,0.159,0.122
		c0.786,0.964,1.741,1.722,2.826,2.302c0.234,0.122,0.459,0.215,0.711,0.318c1.16,0.505,2.387,0.861,3.706,0.861h8.067
		C309.926,245.574,310.357,250.796,310.357,256.187z M205.66,186.969c-4.511-5.372-6.514-11.399-7.403-16.593
		c14.113,6.065,32.84,15.03,50.107,25.419c-0.917,2.302-1.759,4.689-2.583,7.103C227.026,201.7,213.559,196.356,205.66,186.969z
		 M254.204,268.671c0-22.667,3.575-44.408,10.164-62.433c0.187,0.131,0.374,0.262,0.562,0.393
		c5.774,4.165,10.604,8.226,14.749,12.195c-3.285,8.058-6.766,20.561-6.766,37.36c0,31.577,13.121,59.269,28.076,59.269
		s28.076-27.693,28.076-59.269c0-5.344-0.449-10.529-1.16-15.601h17.969c1.263,9.247,1.909,18.661,1.909,28.076
		c0,57.978-25.156,102.947-46.794,102.947C278.874,371.618,254.204,329.335,254.204,268.671z M335.373,371.618
		c0.262-0.309,0.496-0.702,0.758-1.02c1.788-2.162,3.519-4.483,5.185-6.944c0.281-0.412,0.571-0.767,0.852-1.189
		c1.919-2.929,3.734-6.083,5.475-9.387c0.468-0.88,0.889-1.825,1.338-2.733c1.254-2.536,2.452-5.147,3.594-7.861
		c0.487-1.16,0.964-2.33,1.432-3.519c1.114-2.845,2.143-5.784,3.126-8.797c0.318-0.992,0.674-1.947,0.973-2.948
		c1.226-4.024,2.33-8.161,3.313-12.428c0.197-0.852,0.337-1.731,0.524-2.583c0.739-3.472,1.404-7.01,1.975-10.622
		c0.225-1.451,0.421-2.911,0.627-4.371c0.44-3.266,0.805-6.579,1.095-9.93c0.122-1.423,0.271-2.836,0.365-4.277
		c0.318-4.717,0.524-9.49,0.524-14.338v-28.076h5.484l34.693,34.693c1.759,1.759,4.137,2.742,6.617,2.742H609.24
		c-2.153,59.12-24.529,89.508-46.963,93.588h-64.726H335.373z M544.028,521.359h-18.109c-5.325,0-9.668-4.333-9.668-9.668V390.336
		h37.435v56.153v65.203C553.686,517.017,549.353,521.359,544.028,521.359z M572.404,502.642v-37.435h93.588v37.435H572.404z
		 M722.145,548.603c0,5.615-4.567,10.182-10.182,10.182h-17.061c-5.615,0-10.182-4.567-10.182-10.182V521.35v-74.87v-36.612
		c0-5.615,4.567-10.182,10.182-10.182h17.061c5.615,0,10.182,4.567,10.182,10.182V548.603z"/>
	<circle fill="#787979" cx="478.816" cy="334.183" r="9.359"/>
	<circle fill="#787979" cx="441.38" cy="334.183" r="9.359"/>
	<circle fill="#787979" cx="403.945" cy="334.183" r="9.359"/>
	<circle fill="#787979" cx="703.284" cy="438.547" r="9.359"/>
	<circle fill="#787979" cx="703.284" cy="475.982" r="9.359"/>
	<circle fill="#787979" cx="703.284" cy="513.417" r="9.359"/>
</g>
</svg>
