<?xml version="1.0" encoding="utf-8"?>
<!-- Generator: Adobe Illustrator 17.0.0, SVG Export Plug-In . SVG Version: 6.00 Build 0)  -->
<!DOCTYPE svg PUBLIC "-//W3C//DTD SVG 1.1//EN" "http://www.w3.org/Graphics/SVG/1.1/DTD/svg11.dtd">
<svg version="1.1" id="Layer_1" xmlns="http://www.w3.org/2000/svg" xmlns:xlink="http://www.w3.org/1999/xlink" x="0px" y="0px"
	 width="271px" height="224px" viewBox="142.5 0 271 224" enable-background="new 142.5 0 271 224" xml:space="preserve">
<g>
	<path fill="#F10100" d="M224.242,138.871L224.242,138.871c-21.165,0-38.323-17.158-38.323-38.323l0,0
		c0-21.165,17.158-38.323,38.323-38.323l0,0c21.165,0,38.323,17.158,38.323,38.323l0,0
		C262.565,121.713,245.406,138.871,224.242,138.871z"/>
	<g>
		<path fill="#333333" d="M374.048,156.29h-10.452V111h6.968V86.613c0-5.762-4.689-10.452-10.452-10.452
			c-5.762,0-10.452,4.689-10.452,10.452V111h6.968v45.29h-76.645V20.419C279.984,10.814,272.17,3,262.565,3h-76.645
			c-9.605,0-17.419,7.814-17.419,17.419v160.258c0,9.605,7.814,17.419,17.419,17.419h45.29v10.452
			c0,5.762,4.689,10.452,10.452,10.452h132.387c5.762,0,10.452-4.689,10.452-10.452v-41.806
			C384.5,160.98,379.811,156.29,374.048,156.29z M356.629,86.613c0-1.923,1.564-3.484,3.484-3.484c1.92,0,3.484,1.561,3.484,3.484
			v17.419h-6.968V86.613z M241.661,156.29c-4.536,0-8.368,2.923-9.811,6.968h-56.383V30.871h97.548V156.29H241.661z M185.919,9.968
			h76.645c5.762,0,10.452,4.689,10.452,10.452v3.484h-97.548v-3.484C175.468,14.657,180.157,9.968,185.919,9.968z M185.919,191.129
			c-5.762,0-10.452-4.689-10.452-10.452v-10.452h55.742v6.968h-24.387v6.968h24.387v6.968H185.919z M377.532,208.548
			c0,1.923-1.564,3.484-3.484,3.484H241.661c-1.92,0-3.484-1.561-3.484-3.484v-41.806c0-1.923,1.564-3.484,3.484-3.484h132.387
			c1.92,0,3.484,1.561,3.484,3.484V208.548z"/>
		<path fill="#333333" d="M293.919,205.065h69.677v-27.871h-69.677V205.065z M321.79,198.097v-13.935h13.935v13.935H321.79z
			 M356.629,198.097h-13.935v-13.935h13.935V198.097z M300.887,184.161h13.935v13.935h-13.935V184.161z"/>
		<path fill="#333333" d="M266.048,177.194c-7.685,0-13.935,6.25-13.935,13.935s6.25,13.935,13.935,13.935
			c7.685,0,13.935-6.25,13.935-13.935S273.734,177.194,266.048,177.194z M266.048,198.097c-3.843,0-6.968-3.125-6.968-6.968
			s3.125-6.968,6.968-6.968s6.968,3.125,6.968,6.968S269.891,198.097,266.048,198.097z"/>
		<path fill="#333333" d="M335.726,51.774c-7.685,0-13.935,6.25-13.935,13.935s6.25,13.935,13.935,13.935s13.935-6.25,13.935-13.935
			S343.411,51.774,335.726,51.774z M335.726,72.677c-3.843,0-6.968-3.125-6.968-6.968s3.125-6.968,6.968-6.968
			s6.968,3.125,6.968,6.968S339.569,72.677,335.726,72.677z"/>
		<path fill="#333333" d="M356.629,51.774c0-11.528-9.375-20.903-20.903-20.903c-11.528,0-20.903,9.375-20.903,20.903h6.968
			c0-7.685,6.25-13.935,13.935-13.935s13.935,6.25,13.935,13.935H356.629z"/>
		<path fill="#333333" d="M370.565,51.774c0-19.21-15.629-34.839-34.839-34.839s-34.839,15.629-34.839,34.839h6.968
			c0-15.367,12.504-27.871,27.871-27.871s27.871,12.504,27.871,27.871H370.565z"/>
		<path fill="#333333" d="M335.726,9.968c23.053,0,41.806,18.754,41.806,41.806h6.968C384.5,24.879,362.621,3,335.726,3
			s-48.774,21.879-48.774,48.774h6.968C293.919,28.721,312.673,9.968,335.726,9.968z"/>
		<path fill="#333333" d="M213.79,79.645v41.806h8.41l20.903-20.903L222.2,79.645H213.79z M220.758,113.042V88.055l12.493,12.493
			L220.758,113.042z"/>
		<rect x="182.435" y="37.839" fill="#333333" width="6.968" height="6.968"/>
		<rect x="196.371" y="37.839" fill="#333333" width="69.677" height="6.968"/>
	</g>
</g>
</svg>
