<?xml version="1.0" encoding="utf-8"?>
<!-- Generator: Adobe Illustrator 17.0.0, SVG Export Plug-In . SVG Version: 6.00 Build 0)  -->
<!DOCTYPE svg PUBLIC "-//W3C//DTD SVG 1.1//EN" "http://www.w3.org/Graphics/SVG/1.1/DTD/svg11.dtd">
<svg version="1.1" id="Layer_1" xmlns="http://www.w3.org/2000/svg" xmlns:xlink="http://www.w3.org/1999/xlink" x="0px" y="0px"
	 width="271px" height="224px" viewBox="142.5 0 271 224" enable-background="new 142.5 0 271 224" xml:space="preserve">
<path fill="#F10100" d="M238.258,195.097h-50.581c-1.994,0-3.613-1.619-3.613-3.613v-14.452c0-1.994,1.619-3.613,3.613-3.613h50.581
	c1.994,0,3.613,1.619,3.613,3.613v14.452C241.871,193.478,240.252,195.097,238.258,195.097z"/>
<g>
	<path fill="#333333" d="M371.935,155.355H202.129V57.806c0-5.976-4.863-10.839-10.839-10.839c-5.976,0-10.839,4.863-10.839,10.839
		v97.913c-8.234,1.68-14.452,8.978-14.452,17.7v21.677c0,7.388,4.469,13.736,10.839,16.533v5.145c0,3.985,3.241,7.226,7.226,7.226
		h14.452c3.985,0,7.226-3.241,7.226-7.226v-3.613h140.903v3.613c0,3.985,3.241,7.226,7.226,7.226h14.452
		c3.985,0,7.226-3.241,7.226-7.226v-3.978c8.234-1.68,14.452-8.974,14.452-17.7v-21.677
		C390,163.459,381.896,155.355,371.935,155.355z M187.677,57.806c0-1.994,1.619-3.613,3.613-3.613c1.994,0,3.613,1.619,3.613,3.613
		v97.548h-7.226V57.806z M198.523,216.774h-14.459v-3.613h14.455L198.523,216.774z M353.871,216.774v-3.613h14.455l0.004,3.613
		H353.871z M382.774,195.097c0,5.976-4.863,10.839-10.839,10.839h-25.29H205.742h-21.677c-5.976,0-10.839-4.863-10.839-10.839
		v-21.677c0-5.976,4.863-10.839,10.839-10.839h18.065h169.806c5.976,0,10.839,4.863,10.839,10.839V195.097z"/>
	<rect x="368.323" y="180.645" fill="#333333" width="7.226" height="7.226"/>
	<rect x="353.871" y="180.645" fill="#333333" width="7.226" height="7.226"/>
	<rect x="339.419" y="180.645" fill="#333333" width="7.226" height="7.226"/>
	<rect x="324.968" y="180.645" fill="#333333" width="7.226" height="7.226"/>
	<path fill="#333333" d="M238.258,93.935c5.976,0,10.839-4.863,10.839-10.839s-4.863-10.839-10.839-10.839
		s-10.839,4.863-10.839,10.839S232.282,93.935,238.258,93.935z M238.258,79.484c1.994,0,3.613,1.619,3.613,3.613
		s-1.619,3.613-3.613,3.613s-3.613-1.619-3.613-3.613S236.264,79.484,238.258,79.484z"/>
	<path fill="#333333" d="M259.935,83.097h7.226c0-15.937-12.967-28.903-28.903-28.903v7.226
		C250.213,61.419,259.935,71.142,259.935,83.097z"/>
	<path fill="#333333" d="M278,83.097h7.226c0-25.897-21.07-46.968-46.968-46.968v7.226C260.17,43.355,278,61.185,278,83.097z"/>
	<path fill="#333333" d="M296.065,83.097h7.226c0-35.858-29.174-65.032-65.032-65.032v7.226
		C270.131,25.29,296.065,51.224,296.065,83.097z"/>
	<path fill="#333333" d="M314.129,83.097h7.226C321.355,37.274,284.081,0,238.258,0v7.226
		C280.092,7.226,314.129,41.263,314.129,83.097z"/>
</g>
</svg>
