<?xml version="1.0" encoding="utf-8"?>
<!-- Generator: Adobe Illustrator 17.0.0, SVG Export Plug-In . SVG Version: 6.00 Build 0)  -->
<!DOCTYPE svg PUBLIC "-//W3C//DTD SVG 1.1//EN" "http://www.w3.org/Graphics/SVG/1.1/DTD/svg11.dtd">
<svg version="1.1" id="Layer_1" xmlns="http://www.w3.org/2000/svg" xmlns:xlink="http://www.w3.org/1999/xlink" x="0px" y="0px"
	 width="271px" height="224px" viewBox="0 0 271 224" enable-background="new 0 0 271 224" xml:space="preserve">
<g>
	<g>
		<g>
			<polygon fill="#333333" points="135.424,19.619 110.006,41.656 117.674,50.493 135.424,35.094 217.303,106.06 217.303,191.115 
				170.515,191.115 170.515,202.812 229,202.812 229,100.714 			"/>
			<path fill="#333333" d="M44,72.566l7.919,8.597c17.837-16.265,45.128-16.265,62.965,0l7.919-8.597
				C100.487,52.188,66.316,52.188,44,72.566z"/>
			<path fill="#333333" d="M99.479,98.755l7.972-8.556c-13.52-12.695-34.579-12.695-48.098,0l7.972,8.556
				C76.461,90.523,90.341,90.523,99.479,98.755z"/>
			<path fill="#F10100" d="M94.484,109.236H71.09c-9.69,0-17.546,7.855-17.546,17.546v58.485c0,9.69,7.855,17.546,17.546,17.546
				h23.394c9.69,0,17.546-7.855,17.546-17.546v-58.485C112.03,117.091,104.175,109.236,94.484,109.236z M100.333,185.266
				c0,3.23-2.618,5.849-5.849,5.849H71.09c-3.23,0-5.849-2.618-5.849-5.849v-58.485c0-3.23,2.618-5.849,5.849-5.849h23.394
				c3.23,0,5.849,2.618,5.849,5.849V185.266z"/>
			<rect x="76.939" y="132.63" fill="#F10100" width="11.697" height="11.697"/>
			<rect x="123.727" y="191.115" fill="#333333" width="11.697" height="11.697"/>
			<rect x="147.121" y="191.115" fill="#333333" width="11.697" height="11.697"/>
		</g>
	</g>
</g>
</svg>
