<?xml version="1.0" encoding="utf-8"?>
<!-- Generator: Adobe Illustrator 17.0.0, SVG Export Plug-In . SVG Version: 6.00 Build 0)  -->
<!DOCTYPE svg PUBLIC "-//W3C//DTD SVG 1.1//EN" "http://www.w3.org/Graphics/SVG/1.1/DTD/svg11.dtd">
<svg version="1.1" id="_x32_490755a-457e-4afb-a65a-0ea5e4d54fde"
	 xmlns="http://www.w3.org/2000/svg" xmlns:xlink="http://www.w3.org/1999/xlink" x="0px" y="0px" width="945.48px"
	 height="723.06px" viewBox="0 0 945.48 723.06" enable-background="new 0 0 945.48 723.06" xml:space="preserve">
<title>address</title>
<g>
	<g>
		<path fill="#787979" d="M479.495,166.583h-61.03c-3.72,0-6.736,3.584-6.736,8.006s3.016,8.006,6.736,8.006h61.03
			c3.72,0,6.736-3.584,6.736-8.006S483.214,166.583,479.495,166.583z"/>
	</g>
</g>
<g>
	<g>
		<path fill="#787979" d="M539.474,166.583h-8.18c-3.72,0-6.736,3.584-6.736,8.006s3.016,8.006,6.736,8.006h8.18
			c3.72,0,6.736-3.584,6.736-8.006S543.194,166.583,539.474,166.583z"/>
	</g>
</g>
<g>
	<g>
		<path fill="#787979" d="M468.287,561.63h-38.615c-3.72,0-6.736,3.584-6.736,8.006s3.016,8.006,6.736,8.006h38.615
			c3.72,0,6.736-3.584,6.736-8.006S472.006,561.63,468.287,561.63z"/>
	</g>
</g>
<g>
	<g>
		<path fill="#787979" d="M634.82,380.248c-2.63-3.125-6.895-3.125-9.525,0l-56.958,67.699c-2.63,3.127-2.63,8.195,0,11.322
			c1.315,1.562,3.039,2.344,4.763,2.344c1.723,0,3.448-0.782,4.763-2.344l56.958-67.7
			C637.451,388.444,637.451,383.375,634.82,380.248z"/>
	</g>
</g>
<g>
	<g>
		<path fill="#787979" d="M634.82,426.446c-2.63-3.124-6.895-3.124-9.525,0l-56.958,67.699c-2.63,3.127-2.63,8.195,0,11.322
			c1.315,1.562,3.039,2.344,4.763,2.344c1.723,0,3.448-0.782,4.763-2.344l56.958-67.699
			C637.45,434.641,637.45,429.573,634.82,426.446z"/>
	</g>
</g>
<g>
	<g>
		<path fill="#F10100" d="M685.727,487.164c3.72,0,6.736-3.584,6.736-8.006V322.973c0-24.722-16.923-44.836-37.723-44.836h-54.027
			V157.129c-0.002-17.417-11.924-31.586-26.576-31.586H323.823c-14.654,0-26.575,14.169-26.575,31.586v275.717
			c0,4.422,3.016,8.006,6.736,8.006s6.736-3.584,6.736-8.006V216.041H587.24v62.095h-35.222c-20.801,0-37.723,20.114-37.723,44.836
			v197.159H310.718v-39.085c0-4.422-3.016-8.006-6.736-8.006c-3.72,0-6.736,3.584-6.736,8.006v103.912
			c0,17.417,11.922,31.587,26.576,31.587h227.609v-0.018c0.196,0.003,0.389,0.018,0.585,0.018h102.72
			c20.801,0,37.723-20.114,37.723-44.836v-49.703c0-4.422-3.016-8.006-6.736-8.006s-6.736,3.584-6.736,8.006v23.956H527.766V344.704
			h151.226v134.454C678.991,483.581,682.006,487.164,685.727,487.164z M323.823,600.532c-7.226,0-13.105-6.987-13.105-15.576
			v-48.814h203.575v35.565c0,10.969,3.336,21.025,8.859,28.825L323.823,600.532L323.823,600.532z M527.767,561.971h151.225v9.736
			c0,15.894-10.88,28.825-24.252,28.825h-102.72c-13.373,0-24.252-12.931-24.252-28.825V561.971z M310.718,200.03v-42.901
			c0-8.589,5.879-15.576,13.105-15.576h250.312c7.226,0,13.105,6.987,13.105,15.576v42.901L310.718,200.03L310.718,200.03z
			 M678.991,328.694H527.766v-5.721c0-15.894,10.88-28.825,24.252-28.825h102.72c13.373,0,24.252,12.931,24.252,28.825V328.694
			L678.991,328.694z"/>
	</g>
</g>
<g>
	<g>
		<path fill="#787979" d="M628.923,305.992h-51.091c-3.72,0-6.736,3.584-6.736,8.006s3.016,8.006,6.736,8.006h51.091
			c3.72,0,6.736-3.584,6.736-8.006S632.644,305.992,628.923,305.992z"/>
	</g>
</g>
<g>
	<g>
		<path fill="#787979" d="M612.502,574.128h-18.248c-3.72,0-6.736,3.584-6.736,8.006c0,4.422,3.016,8.006,6.736,8.006h18.248
			c3.72,0,6.736-3.584,6.736-8.006C619.238,577.712,616.222,574.128,612.502,574.128z"/>
	</g>
</g>
<g>
	<g>
		<path fill="#787979" d="M482.219,299.457c-2.63-3.125-6.895-3.125-9.525,0l-56.958,67.699c-2.63,3.127-2.63,8.195,0,11.322
			c1.315,1.563,3.039,2.344,4.763,2.344c1.723,0,3.448-0.782,4.763-2.344l56.958-67.699
			C484.85,307.651,484.85,302.583,482.219,299.457z"/>
	</g>
</g>
<g>
	<g>
		<path fill="#787979" d="M482.219,345.655c-2.63-3.125-6.895-3.125-9.525,0l-56.958,67.699c-2.63,3.126-2.63,8.195,0,11.322
			c1.315,1.563,3.039,2.344,4.763,2.344s3.448-0.782,4.763-2.344l56.958-67.699C484.85,353.849,484.85,348.781,482.219,345.655z"/>
	</g>
</g>
</svg>
