<?xml version="1.0" encoding="utf-8"?>
<!-- Generator: Adobe Illustrator 17.0.0, SVG Export Plug-In . SVG Version: 6.00 Build 0)  -->
<!DOCTYPE svg PUBLIC "-//W3C//DTD SVG 1.1//EN" "http://www.w3.org/Graphics/SVG/1.1/DTD/svg11.dtd">
<svg version="1.1" id="_x32_490755a-457e-4afb-a65a-0ea5e4d54fde"
	 xmlns="http://www.w3.org/2000/svg" xmlns:xlink="http://www.w3.org/1999/xlink" x="0px" y="0px" width="945.48px"
	 height="723.06px" viewBox="0 0 945.48 723.06" enable-background="new 0 0 945.48 723.06" xml:space="preserve">
<title>address</title>
<path fill="#F10100" d="M570.595,331.799c50.599-3.606,90.16-46.883,90.16-98.684c0-45.025-30.6-84.914-72.455-95.952
	c-8.961-53.877-55.298-93.657-110.924-93.657c-40.326,0-77.701,21.857-97.591,56.391c-3.825-0.765-7.868-1.093-11.803-1.093
	c-33.987,0-61.636,27.649-61.636,61.636c0,4.371,0.437,8.633,1.311,12.786c-21.966,15.956-35.299,41.747-35.299,69.068
	c0,46.118,37.047,87.209,80.87,89.613c0.219,0,0.437,0,0.656,0h216.055C570.048,331.908,570.376,331.908,570.595,331.799z
	 M354.102,310.27c-32.676-1.967-60.106-33.004-60.106-67.975c0-22.622,12.131-43.714,31.692-55.079
	c4.59-2.623,6.557-8.196,4.699-13.114c-1.639-4.262-2.404-8.852-2.404-13.661c0-22.075,17.923-39.998,39.998-39.998
	c4.699,0,9.289,0.765,13.661,2.404c5.246,1.967,11.147-0.437,13.551-5.574c14.863-31.692,47.211-52.129,82.291-52.129
	c47.102,0,86.007,35.299,90.487,82.072c0.437,4.918,4.153,8.852,8.961,9.617c35.517,6.12,62.292,38.905,62.292,76.28
	c0,39.67-31.255,74.204-69.723,77.155H354.102z"/>
<path fill="#787979" d="M466.556,368.409c-6.011,0-10.819,4.809-10.819,10.819v126.77c-14.972,4.59-26.119,18.469-26.447,34.752
	c-0.219,9.945,3.388,19.453,10.273,26.665c6.885,7.213,16.174,11.366,26.119,11.584h0.874l0,0c20.108,0,36.829-16.393,37.266-36.392
	c0.219-9.945-3.388-19.453-10.273-26.665c-4.481-4.699-10.054-8.087-16.174-9.945v-126.77
	C477.375,373.218,472.567,368.409,466.556,368.409z M477.921,530.915c2.841,3.06,4.481,6.994,4.371,11.147
	c-0.219,8.415-7.213,15.3-15.628,15.3h-0.437c-4.153-0.109-8.087-1.858-10.928-4.809c-2.841-3.06-4.481-6.994-4.371-11.147
	c0.219-8.415,7.213-15.3,15.628-15.3h0.437C471.146,526.106,474.971,527.855,477.921,530.915z"/>
<path fill="#787979" d="M397.051,379.228v60.653c0,10.491-8.524,18.906-18.906,18.906h-31.911
	c-4.699-15.3-18.906-26.556-35.736-26.556c-20.545,0-37.375,16.72-37.375,37.375s16.72,37.375,37.375,37.375
	c16.83,0,31.037-11.147,35.736-26.556h31.911c22.403,0,40.544-18.25,40.544-40.544v-60.653c0-6.011-4.809-10.819-10.819-10.819
	C401.969,368.409,397.051,373.218,397.051,379.228z M310.498,485.343c-8.633,0-15.737-6.994-15.737-15.737
	s6.994-15.737,15.737-15.737c8.633,0,15.737,6.994,15.737,15.737S319.241,485.343,310.498,485.343z"/>
<path fill="#787979" d="M554.967,480.535h31.911c4.699,15.3,18.906,26.556,35.736,26.556c20.545,0,37.375-16.72,37.375-37.375
	s-16.721-37.375-37.375-37.375c-16.83,0-31.037,11.147-35.736,26.556h-31.911c-10.491,0-18.906-8.524-18.906-18.906v-60.653
	c0-6.011-4.809-10.819-10.819-10.819s-10.819,4.809-10.819,10.819v60.653C514.422,462.284,532.564,480.535,554.967,480.535z
	 M622.614,453.979c8.633,0,15.737,6.994,15.737,15.737s-6.994,15.737-15.737,15.737s-15.737-6.994-15.737-15.737
	S613.871,453.979,622.614,453.979z"/>
</svg>
