<?xml version="1.0" encoding="utf-8"?>
<!-- Generator: Adobe Illustrator 17.0.0, SVG Export Plug-In . SVG Version: 6.00 Build 0)  -->
<!DOCTYPE svg PUBLIC "-//W3C//DTD SVG 1.1//EN" "http://www.w3.org/Graphics/SVG/1.1/DTD/svg11.dtd">
<svg version="1.1" id="_x32_490755a-457e-4afb-a65a-0ea5e4d54fde"
	 xmlns="http://www.w3.org/2000/svg" xmlns:xlink="http://www.w3.org/1999/xlink" x="0px" y="0px" width="945.48px"
	 height="723.06px" viewBox="0 0 945.48 723.06" enable-background="new 0 0 945.48 723.06" xml:space="preserve">
<title>address</title>
<g>
	<g>
		<g>
			<path fill="#F10100" d="M685.238,226.375H393.688c-5.748,0-10.413,4.665-10.413,10.413c0,5.748,4.665,10.413,10.413,10.413
				h291.551c17.223,0,31.238,14.015,31.238,31.238v166.6c0,17.223-14.015,31.238-31.238,31.238H393.688
				c-17.223,0-31.238-14.015-31.238-31.238v-20.826c0-5.748-4.665-10.413-10.413-10.413s-10.413,4.665-10.413,10.413v20.825
				c0,28.697,23.366,52.062,52.062,52.062h291.551c28.697,0,52.062-23.366,52.062-52.062V278.438
				C737.3,249.741,713.935,226.375,685.238,226.375z"/>
		</g>
	</g>
	<g>
		<g>
			<path fill="#F10100" d="M726.888,413.8h-374.85c-5.748,0-10.413,4.665-10.413,10.413c0,5.748,4.665,10.413,10.413,10.413h374.85
				c5.748,0,10.413-4.665,10.413-10.413C737.3,418.465,732.635,413.8,726.888,413.8z"/>
		</g>
	</g>
	<g>
		<g>
			<path fill="#787979" d="M539.462,476.275c-5.748,0-10.413,4.665-10.413,10.413v41.65c0,5.748,4.665,10.413,10.413,10.413
				c5.748,0,10.413-4.665,10.413-10.413v-41.65C549.875,480.94,545.21,476.275,539.462,476.275z"/>
		</g>
	</g>
	<g>
		<g>
			<path fill="#787979" d="M622.763,517.926h-166.6c-5.748,0-10.413,4.665-10.413,10.413c0,5.748,4.665,10.413,10.413,10.413h166.6
				c5.748,0,10.413-4.665,10.413-10.413C633.176,522.591,628.511,517.926,622.763,517.926z"/>
		</g>
	</g>
	<g>
		<g>
			<path fill="#787979" d="M372.863,122.251H268.738c-5.748,0-10.413,4.665-10.413,10.413v62.475
				c0,5.747,4.665,10.412,10.413,10.412h104.125c5.748,0,10.413-4.665,10.413-10.413v-62.475
				C383.275,126.915,378.611,122.251,372.863,122.251z M362.45,184.726h-83.3v-41.65h83.3V184.726z"/>
		</g>
	</g>
	<g>
		<g>
			<path fill="#F10100" d="M393.688,184.726h-20.825c-5.748,0-10.413,4.665-10.413,10.413c0,5.748,4.665,10.412,10.413,10.412
				h10.413v110.226l-14.724,14.724h-95.504l-14.724-14.724V205.55h10.413c5.748,0,10.413-4.665,10.413-10.413
				c0-5.748-4.665-10.412-10.413-10.412h-20.825c-5.748,0-10.413,4.664-10.413,10.412v124.95c0,2.769,1.104,5.415,3.041,7.372
				l20.825,20.825c1.957,1.937,4.603,3.041,7.372,3.041h104.125c2.769,0,5.415-1.104,7.372-3.041l20.825-20.825
				c1.937-1.957,3.041-4.603,3.041-7.372v-124.95C404.1,189.39,399.435,184.726,393.688,184.726z"/>
		</g>
	</g>
	<g>
		<g>
			<path fill="#787979" d="M299.975,132.663c-5.748,0-10.413,4.665-10.413,10.413v10.413c0,5.748,4.665,10.413,10.413,10.413
				c5.748,0,10.413-4.665,10.413-10.413v-10.413C310.388,137.328,305.723,132.663,299.975,132.663z"/>
		</g>
	</g>
	<g>
		<g>
			<path fill="#787979" d="M341.625,132.663c-5.748,0-10.413,4.665-10.413,10.413v10.413c0,5.748,4.665,10.413,10.413,10.413
				s10.413-4.665,10.413-10.413v-10.413C352.037,137.328,347.373,132.663,341.625,132.663z"/>
		</g>
	</g>
	<g>
		<g>
			<path fill="#787979" d="M352.037,184.726c-5.748,0-10.413,4.665-10.413,10.413v52.062h-41.649v-52.062
				c0-5.748-4.665-10.413-10.413-10.413c-5.748,0-10.413,4.665-10.413,10.413v62.475c0,5.748,4.665,10.413,10.413,10.413h62.475
				c5.748,0,10.413-4.665,10.413-10.413v-62.475C362.45,189.39,357.785,184.726,352.037,184.726z"/>
		</g>
	</g>
	<g>
		<g>
			<path fill="#787979" d="M331.213,268.025h-20.825c-5.748,0-10.413,4.665-10.413,10.413c0,5.748,4.665,10.413,10.413,10.413
				h20.825c5.748,0,10.413-4.665,10.413-10.413S336.96,268.025,331.213,268.025z"/>
		</g>
	</g>
	<g>
		<g>
			<path fill="#F10100" d="M377.527,373.233c-5.143-2.541-11.391-0.479-13.974,4.665l-17.951,35.903h-49.605l-17.93-35.881
				c-2.582-5.143-8.829-7.205-13.974-4.665c-5.143,2.582-7.247,8.829-4.665,13.974l20.825,41.65c1.77,3.519,5.373,5.748,9.309,5.748
				h62.475c3.936,0,7.539-2.229,9.329-5.768l20.825-41.65C384.754,382.063,382.672,375.815,377.527,373.233z"/>
		</g>
	</g>
	<g>
		<g>
			<path fill="#F10100" d="M372.863,330.501c-5.748,0-10.413,4.665-10.413,10.413v31.238h-83.3v-31.238
				c0-5.748-4.665-10.413-10.413-10.413s-10.413,4.665-10.413,10.413v41.65c0,5.747,4.665,10.412,10.413,10.412h104.125
				c5.748,0,10.413-4.665,10.413-10.413v-41.65C383.275,335.166,378.611,330.501,372.863,330.501z"/>
		</g>
	</g>
	<g>
		<g>
			<path fill="#787979" d="M322.903,414.009c-5.643-1.167-11.141,2.437-12.308,8.08c-0.417,2.104-10.621,51.792-10.621,106.25
				c0,5.748,4.665,10.413,10.413,10.413s10.413-4.665,10.413-10.413c0-52.25,10.1-101.522,10.183-102.022
				C332.15,420.694,328.547,415.175,322.903,414.009z"/>
		</g>
	</g>
</g>
</svg>
