<?xml version="1.0" encoding="utf-8"?>
<!-- Generator: Adobe Illustrator 17.0.0, SVG Export Plug-In . SVG Version: 6.00 Build 0)  -->
<!DOCTYPE svg PUBLIC "-//W3C//DTD SVG 1.1//EN" "http://www.w3.org/Graphics/SVG/1.1/DTD/svg11.dtd">
<svg version="1.1" id="_x32_490755a-457e-4afb-a65a-0ea5e4d54fde"
	 xmlns="http://www.w3.org/2000/svg" xmlns:xlink="http://www.w3.org/1999/xlink" x="0px" y="0px" width="945.48px"
	 height="723.06px" viewBox="0 0 945.48 723.06" enable-background="new 0 0 945.48 723.06" xml:space="preserve">
<title>address</title>
<g>
	<g>
		<path fill="#787979" d="M697.274,205.508c-6.657-0.006-13.274,1.013-19.621,3.019c0.602-4.783,0.906-9.601,0.912-14.421
			c-1.185-70.518-59.311-126.725-129.831-125.54c-51.459,0.864-97.37,32.535-116.454,80.333
			c-36.906-22.885-85.376-11.517-108.26,25.389c-7.45,12.014-11.523,25.815-11.79,39.949c-9.936-5.736-21.21-8.749-32.683-8.729
			c-35.264,0-63.852,28.587-63.852,63.852s28.587,63.852,63.852,63.852c5.037,0,9.122-4.084,9.122-9.122
			c0-5.037-4.084-9.122-9.122-9.122c-25.186-0.409-45.271-21.158-44.861-46.344s21.158-45.271,46.344-44.861
			c15.331,0.25,29.511,8.186,37.741,21.122c2.759,4.215,8.412,5.395,12.628,2.637c3.643-2.384,5.093-7.01,3.463-11.047
			c-2.872-6.928-4.372-14.347-4.415-21.846c0.366-33.057,27.42-59.579,60.477-59.291c14.729,0.058,28.938,5.45,39.998,15.178
			c3.797,3.311,9.56,2.917,12.87-0.88c0.897-1.028,1.552-2.246,1.917-3.562c16.69-58.078,77.302-91.628,135.378-74.938
			c46.112,13.251,78.213,54.999,79.173,102.969c-0.039,9.562-1.374,19.075-3.968,28.277c-1.349,4.854,1.491,9.882,6.345,11.231
			c2.626,0.73,5.441,0.247,7.675-1.316c7.89-5.564,17.31-8.549,26.964-8.547c25.188,0,45.608,20.42,45.608,45.608
			s-20.42,45.608-45.608,45.608c-5.037,0-9.122,4.084-9.122,9.122s4.084,9.122,9.122,9.122c35.264,0,63.852-28.587,63.852-63.852
			C761.126,234.095,732.539,205.508,697.274,205.508z"/>
	</g>
</g>
<g>
	<g>
		<path fill="#F10100" d="M643.457,415.306H333.32c-15.113,0-27.365,12.252-27.365,27.365v36.487
			c0,15.113,12.252,27.365,27.365,27.365h310.137c15.113,0,27.365-12.252,27.365-27.365v-36.487
			C670.822,427.558,658.57,415.306,643.457,415.306z M652.578,479.158c0,5.037-4.084,9.122-9.122,9.122H333.32
			c-5.037,0-9.122-4.084-9.122-9.122v-36.487c0-5.037,4.084-9.122,9.122-9.122h310.137c5.037,0,9.122,4.084,9.122,9.122V479.158z"/>
	</g>
</g>
<g>
	<g>
		<path fill="#F10100" d="M618.153,443.237c-9.72,0.06-17.568,7.956-17.568,17.677c0.046,9.788,8,17.693,17.787,17.678
			c9.764-0.06,17.629-8.024,17.568-17.787C635.88,451.041,627.917,443.176,618.153,443.237z M618.372,461.489
			c-0.274,0-0.456-0.301-0.456-0.575l0.456-0.566V461.489z"/>
	</g>
</g>
<g>
	<g>
		<path fill="#787979" d="M523.051,451.793H349.739c-5.037,0-9.122,4.084-9.122,9.122c0,5.037,4.084,9.122,9.122,9.122h173.312
			c5.037,0,9.122-4.084,9.122-9.122C532.172,455.877,528.089,451.793,523.051,451.793z"/>
	</g>
</g>
<g>
	<g>
		<path fill="#787979" d="M579.377,451.793h-24.264c-5.037,0-9.122,4.084-9.122,9.122c0,5.037,4.084,9.122,9.122,9.122h24.264
			c5.037,0,9.122-4.084,9.122-9.122C588.498,455.877,584.415,451.793,579.377,451.793z"/>
	</g>
</g>
<g>
	<g>
		<path fill="#F10100" d="M643.457,524.766H333.32c-15.113,0-27.365,12.252-27.365,27.365v36.487
			c0,15.113,12.252,27.365,27.365,27.365h310.137c15.113,0,27.365-12.252,27.365-27.365v-36.487
			C670.822,537.018,658.57,524.766,643.457,524.766z M652.578,588.618c0,5.037-4.084,9.122-9.122,9.122H333.32
			c-5.037,0-9.122-4.084-9.122-9.122v-36.487c0-5.037,4.084-9.122,9.122-9.122h310.137c5.037,0,9.122,4.084,9.122,9.122V588.618z"/>
	</g>
</g>
<g>
	<g>
		<path fill="#F10100" d="M618.153,552.697c-9.72,0.06-17.568,7.956-17.568,17.677c0.046,9.788,8,17.693,17.787,17.678
			c9.764-0.06,17.629-8.024,17.568-17.787C635.88,560.501,627.917,552.636,618.153,552.697z M618.372,570.949
			c-0.274,0-0.456-0.301-0.456-0.575l0.456-0.566V570.949z"/>
	</g>
</g>
<g>
	<g>
		<path fill="#787979" d="M523.051,561.253H349.739c-5.037,0-9.122,4.084-9.122,9.122c0,5.037,4.084,9.122,9.122,9.122h173.312
			c5.037,0,9.122-4.084,9.122-9.122C532.172,565.337,528.089,561.253,523.051,561.253z"/>
	</g>
</g>
<g>
	<g>
		<path fill="#787979" d="M579.377,561.253h-24.264c-5.037,0-9.122,4.084-9.122,9.122c0,5.037,4.084,9.122,9.122,9.122h24.264
			c5.037,0,9.122-4.084,9.122-9.122C588.498,565.337,584.415,561.253,579.377,561.253z"/>
	</g>
</g>
<g>
	<g>
		<path fill="#F10100" d="M643.457,305.846H333.32c-15.113,0-27.365,12.252-27.365,27.365v36.487
			c0,15.113,12.252,27.365,27.365,27.365h310.137c15.113,0,27.365-12.252,27.365-27.365v-36.487
			C670.822,318.098,658.57,305.846,643.457,305.846z M652.578,369.698c0,5.037-4.084,9.122-9.122,9.122H333.32
			c-5.037,0-9.122-4.084-9.122-9.122v-36.487c0-5.037,4.084-9.122,9.122-9.122h310.137c5.037,0,9.122,4.084,9.122,9.122V369.698z"/>
	</g>
</g>
<g>
	<g>
		<path fill="#F10100" d="M633.076,348.964c-1.758-9.691-11.038-16.121-20.729-14.363c-4.592,0.832-8.674,3.432-11.37,7.239
			c-2.708,3.822-3.766,8.571-2.937,13.181c1.535,8.491,8.922,14.669,17.55,14.677c0.997-0.001,1.991-0.083,2.974-0.246
			c4.684-0.773,8.858-3.405,11.575-7.297C632.856,358.332,633.915,353.576,633.076,348.964z M615.125,352.175l0.41-0.721l0.046,1.14
			C615.17,352.595,615.143,352.367,615.125,352.175z"/>
	</g>
</g>
<g>
	<g>
		<path fill="#787979" d="M521.226,342.333H347.915c-5.037,0-9.122,4.084-9.122,9.122s4.084,9.122,9.122,9.122h173.312
			c5.037,0,9.122-4.084,9.122-9.122C530.348,346.417,526.265,342.333,521.226,342.333z"/>
	</g>
</g>
<g>
	<g>
		<path fill="#787979" d="M573.548,342.333h-24.264c-5.037,0-9.122,4.084-9.122,9.122s4.084,9.122,9.122,9.122h24.264
			c5.037,0,9.122-4.084,9.122-9.122C582.67,346.417,578.587,342.333,573.548,342.333z"/>
	</g>
</g>
<g>
	<g>
		<path fill="#F10100" d="M449.229,217.302l-27.365-27.365c-3.562-3.561-9.336-3.561-12.898,0l-27.365,27.365
			c-3.499,3.624-3.399,9.399,0.225,12.898c3.535,3.414,9.139,3.414,12.673,0l11.794-11.794v60.075c0,5.037,4.084,9.122,9.122,9.122
			c5.037,0,9.122-4.084,9.122-9.122v-60.075l11.794,11.794c3.624,3.499,9.399,3.399,12.898-0.225
			C452.643,226.441,452.643,220.837,449.229,217.302z"/>
	</g>
</g>
<g>
	<g>
		<path fill="#F10100" d="M594.952,244.667c-3.535-3.414-9.139-3.414-12.675,0l-11.794,11.794v-60.075
			c0-5.037-4.084-9.122-9.122-9.122s-9.122,4.084-9.122,9.122v60.075l-11.794-11.794c-3.624-3.5-9.398-3.4-12.898,0.223
			c-3.414,3.535-3.414,9.139,0,12.675l27.365,27.365c3.562,3.561,9.336,3.561,12.898,0l27.365-27.365
			C598.676,253.942,598.576,248.167,594.952,244.667z"/>
	</g>
</g>
</svg>
